<?xml version="1.0" standalone="no"?>
<!DOCTYPE svg PUBLIC "-//W3C//DTD SVG 20010904//EN"
 "http://www.w3.org/TR/2001/REC-SVG-20010904/DTD/svg10.dtd">
<svg version="1.0" xmlns="http://www.w3.org/2000/svg"
 width="500.000000pt" height="500.000000pt" viewBox="0 0 500.000000 500.000000"
 preserveAspectRatio="xMidYMid meet">

<g transform="translate(0.000000,500.000000) scale(0.100000,-0.100000)"
fill="#000000" stroke="none">
<path d="M710 3606 c0 -2 72 -207 160 -456 88 -249 160 -454 160 -456 0 -2 29
-4 65 -4 36 0 65 3 65 7 0 4 -68 198 -151 432 -83 234 -156 438 -161 454 -9
26 -13 27 -74 27 -35 0 -64 -2 -64 -4z"/>
<path d="M2312 3558 c-56 -152 -305 -835 -310 -850 -4 -16 3 -18 56 -18 48 0
63 4 71 18 14 27 321 878 321 890 0 8 -21 12 -59 12 l-60 0 -19 -52z"/>
<path d="M2745 3598 c-3 -7 -4 -213 -3 -458 l3 -445 63 -3 62 -3 0 461 0 460
-60 0 c-39 0 -62 -4 -65 -12z"/>
<path d="M3620 3159 c-228 -249 -416 -456 -418 -460 -2 -5 46 -9 108 -9 109 0
111 0 100 21 -9 15 -8 24 2 37 7 9 185 204 396 433 210 230 382 420 382 423 0
3 -35 6 -77 6 l-78 0 -415 -451z"/>
<path d="M1608 2609 c-25 -14 -40 -46 -33 -69 4 -13 24 -25 60 -35 55 -16 74
-37 54 -61 -15 -19 -64 -18 -83 1 -16 17 -36 20 -36 6 0 -19 45 -41 81 -41 45
0 72 27 67 67 -3 24 -10 30 -51 44 -56 19 -72 32 -64 53 8 21 75 22 83 1 6
-15 34 -21 34 -7 -1 37 -73 64 -112 41z"/>
<path d="M1210 2604 c0 -4 15 -49 33 -101 39 -112 56 -120 83 -40 9 28 25 73
35 100 15 38 16 47 5 47 -8 0 -25 -32 -42 -80 -16 -44 -32 -76 -35 -72 -4 4
-18 38 -32 77 -13 38 -29 71 -36 73 -6 2 -11 0 -11 -4z"/>
<path d="M1450 2510 c0 -82 3 -100 15 -100 12 0 15 18 15 100 0 82 -3 100 -15
100 -12 0 -15 -18 -15 -100z"/>
<path d="M1810 2510 c0 -82 3 -100 15 -100 11 0 15 12 15 45 l0 45 55 0 55 0
0 -45 c0 -25 5 -45 10 -45 6 0 10 40 10 100 0 60 -4 100 -10 100 -5 0 -10 -18
-10 -40 l0 -40 -55 0 -55 0 0 40 c0 29 -4 40 -15 40 -12 0 -15 -18 -15 -100z"/>
<path d="M2092 2518 c-36 -103 -37 -108 -21 -108 5 0 15 14 20 30 10 27 16 30
51 30 35 0 41 -4 51 -30 6 -16 17 -30 24 -30 16 0 19 -11 -21 100 -46 130 -60
131 -104 8z m71 15 l17 -43 -36 0 c-38 0 -38 0 -12 69 10 28 10 28 31 -26z"/>
<path d="M2310 2510 l0 -100 65 0 c37 0 65 4 65 10 0 6 -22 10 -50 10 l-50 0
0 90 c0 73 -3 90 -15 90 -12 0 -15 -18 -15 -100z"/>
<path d="M2630 2510 c0 -60 4 -100 10 -100 6 0 10 12 10 28 0 27 24 72 38 72
4 0 20 -23 35 -50 16 -28 35 -50 43 -50 16 0 12 12 -33 83 l-24 38 31 40 c46
57 12 52 -37 -6 -20 -25 -41 -45 -45 -45 -4 0 -8 20 -8 45 0 25 -4 45 -10 45
-6 0 -10 -40 -10 -100z"/>
<path d="M2861 2524 c4 -97 16 -114 79 -114 57 0 70 22 70 118 0 48 -4 82 -10
82 -6 0 -10 -28 -10 -62 0 -73 -16 -112 -48 -116 -42 -6 -52 14 -52 99 0 66
-3 79 -16 79 -14 0 -16 -12 -13 -86z"/>
<path d="M3100 2511 c0 -83 3 -101 15 -101 12 0 15 16 16 78 l0 77 28 -75 c16
-43 33 -75 41 -75 8 0 25 32 41 75 l28 75 0 -77 c1 -62 4 -78 16 -78 12 0 15
18 15 100 0 92 -2 100 -19 100 -15 0 -26 -17 -48 -75 -15 -41 -30 -75 -33 -75
-4 0 -18 33 -32 73 -20 56 -30 73 -47 75 -20 3 -21 0 -21 -97z"/>
<path d="M3422 2528 c-17 -46 -33 -91 -37 -100 -5 -13 -2 -18 8 -18 8 0 20 14
26 30 9 27 15 30 50 30 34 0 40 -3 50 -30 5 -16 16 -30 24 -30 11 0 6 24 -22
100 -46 128 -58 130 -99 18z m57 30 c25 -67 25 -68 -12 -68 l-35 0 17 45 c9
25 17 45 19 45 1 0 6 -10 11 -22z"/>
<path d="M3640 2510 c0 -60 4 -100 10 -100 6 0 10 20 10 45 0 43 1 45 29 45
26 0 32 -6 47 -45 9 -25 23 -45 31 -45 10 0 13 6 8 18 -26 64 -27 73 -11 91
19 21 21 62 4 79 -7 7 -38 12 -70 12 l-58 0 0 -100z m109 62 c16 -30 -5 -52
-49 -52 -39 0 -40 1 -40 35 0 34 1 35 40 35 27 0 42 -5 49 -18z"/>
<path d="M1172 2298 c3 -7 74 -210 159 -451 l154 -437 88 2 89 3 154 425 c85
233 157 435 160 447 6 22 4 23 -55 23 -47 0 -62 -4 -69 -17 -5 -10 -69 -183
-143 -385 -73 -202 -134 -366 -136 -365 -1 1 -62 173 -136 382 l-135 380 -67
3 c-52 2 -66 0 -63 -10z"/>
<path d="M2745 2298 c-3 -7 -4 -209 -3 -448 l3 -435 63 -3 62 -3 0 381 0 381
60 64 c33 35 60 67 60 70 0 3 -54 5 -120 5 -87 0 -122 -3 -125 -12z"/>
<path d="M3527 2297 c4 -8 133 -210 287 -450 l278 -437 75 0 75 0 -14 23 c-8
12 -138 214 -288 450 l-274 427 -74 0 c-58 0 -71 -3 -65 -13z"/>
</g>
</svg>
